<svg xmlns="http://www.w3.org/2000/svg" width="30" height="28" viewBox="0 0 30 28"><defs><linearGradient id="b75ga" x1="14" x2="16" y1="28" y2="0" gradientUnits="userSpaceOnUse"><stop offset="0" stop-color="#0f33ff"/><stop offset=".76" stop-color="#07d2b3"/><stop offset="1" stop-color="#07d2b3"/></linearGradient></defs><g><g><path fill="#391557" d="M2.059 10.31c1.137 0 2.059 1.198 2.059 2.676v3.04c0 1.48-.922 2.677-2.06 2.677C.923 18.703 0 17.505 0 16.027v-3.041c0-1.478.922-2.677 2.059-2.677zm25.882 0c1.137 0 2.059 1.198 2.059 2.676v3.04c0 1.48-.922 2.677-2.059 2.677s-2.059-1.198-2.059-2.676v-3.041c0-1.478.922-2.677 2.06-2.677zM8.53 6.03c1.137 0 2.06 1.198 2.06 2.676v11.586c0 1.479-.923 2.677-2.06 2.677s-2.058-1.198-2.058-2.677V8.706c0-1.478.921-2.677 2.058-2.677zm12.942 0c1.137 0 2.058 1.198 2.058 2.676v11.586c0 1.479-.921 2.677-2.058 2.677-1.137 0-2.06-1.198-2.06-2.677V8.706c0-1.478.923-2.677 2.06-2.677zM15 0c1.14 0 2.063.923 2.063 2.062v23.875a2.063 2.063 0 0 1-4.125 0V2.063C12.938.923 13.86 0 15 0z"/><path fill="url(#b75ga)" d="M2.059 10.31c1.137 0 2.059 1.198 2.059 2.676v3.04c0 1.48-.922 2.677-2.06 2.677C.923 18.703 0 17.505 0 16.027v-3.041c0-1.478.922-2.677 2.059-2.677zm25.882 0c1.137 0 2.059 1.198 2.059 2.676v3.04c0 1.48-.922 2.677-2.059 2.677s-2.059-1.198-2.059-2.676v-3.041c0-1.478.922-2.677 2.06-2.677zM8.53 6.03c1.137 0 2.06 1.198 2.06 2.676v11.586c0 1.479-.923 2.677-2.06 2.677s-2.058-1.198-2.058-2.677V8.706c0-1.478.921-2.677 2.058-2.677zm12.942 0c1.137 0 2.058 1.198 2.058 2.676v11.586c0 1.479-.921 2.677-2.058 2.677-1.137 0-2.06-1.198-2.06-2.677V8.706c0-1.478.923-2.677 2.06-2.677zM15 0c1.14 0 2.063.923 2.063 2.062v23.875a2.063 2.063 0 0 1-4.125 0V2.063C12.938.923 13.86 0 15 0z"/></g></g></svg>