<svg xmlns="http://www.w3.org/2000/svg" width="18" height="14" viewBox="0 0 18 14"><g><g><path fill="#fff" d="M10.146 1.716a.986.986 0 0 1 0-1.426 1.059 1.059 0 0 1 1.454 0l6.095 5.978a1.018 1.018 0 0 1 0 1.455L11.6 13.7c-.407.4-1.047.4-1.454 0a.986.986 0 0 1 0-1.427l4.364-4.266H1.018A1.013 1.013 0 0 1 0 6.996c0-.557.45-.999 1.018-.999h13.49z"/><path fill="#fff" d="M10.146 1.716a.986.986 0 0 1 0-1.426 1.059 1.059 0 0 1 1.454 0l6.095 5.978a1.018 1.018 0 0 1 0 1.455L11.6 13.7c-.407.4-1.047.4-1.454 0a.986.986 0 0 1 0-1.427l4.364-4.266H1.018A1.013 1.013 0 0 1 0 6.996c0-.557.45-.999 1.018-.999h13.49z"/></g></g></svg>